<?xml version="1.0" standalone="no"?>
<svg version="1.0" xmlns="http://www.w3.org/2000/svg"
 width="700.000000pt" height="700.000000pt" viewBox="0 0 700.000000 700.000000"
 preserveAspectRatio="xMidYMid meet">
<metadata>
Created by potrace 1.11, written by Peter Selinger 2001-2013
</metadata>
<g transform="translate(0.000000,700.000000) scale(0.100000,-0.100000)"
fill="#000000" stroke="none">
<path d="M3185 6770 c-1142 -115 -1867 -760 -2166 -1928 -121 -472 -166 -1088
-118 -1611 l10 -114 -30 -56 c-188 -353 -91 -808 224 -1048 l70 -53 65 -153
c159 -370 341 -653 578 -898 388 -403 844 -621 1416 -680 154 -15 535 -7 666
15 424 71 758 214 1055 451 95 76 273 252 352 350 185 229 361 540 473 836 28
76 37 88 75 113 24 15 79 64 122 110 135 143 209 315 220 513 9 166 -25 321
-102 459 -20 35 -34 68 -32 72 3 4 13 90 22 192 21 222 24 687 6 895 -90 1035
-471 1770 -1132 2180 -283 176 -611 286 -1014 341 -131 18 -627 27 -760 14z
m-1028 -2244 c449 -79 872 -116 1343 -116 474 0 844 32 1315 112 188 31 286
15 409 -70 53 -36 122 -132 141 -195 21 -68 51 -336 64 -567 6 -102 13 -220
16 -263 2 -43 1 -76 -3 -74 -4 3 -63 13 -132 22 l-125 18 -66 53 c-73 59 -183
115 -274 139 -37 10 -102 16 -170 16 -199 0 -353 -59 -480 -185 -51 -50 -91
-79 -145 -105 l-75 -35 -475 -1 -475 0 -50 26 c-27 15 -60 30 -73 33 -12 4
-56 40 -96 81 -125 125 -285 187 -481 186 -189 0 -344 -61 -490 -191 -26 -23
-47 -29 -153 -44 -67 -9 -129 -19 -137 -23 -17 -6 -18 -19 15 362 24 267 54
490 76 557 22 68 92 158 155 200 115 75 208 91 366 64z m303 -1267 c36 -5 110
-26 165 -46 114 -40 173 -50 205 -33 19 10 26 8 46 -11 38 -35 47 -81 41 -193
-6 -105 -42 -257 -78 -332 -27 -57 -85 -113 -144 -139 -83 -37 -186 -49 -378
-42 -256 9 -346 35 -421 117 -72 80 -107 211 -109 410 -2 149 12 207 45 189
29 -16 93 -6 168 26 132 56 313 78 460 54z m2386 -8 c49 -10 119 -31 155 -46
84 -36 132 -42 164 -21 14 9 30 14 35 11 32 -20 40 -233 15 -381 -25 -142 -76
-232 -161 -284 -51 -32 -141 -50 -311 -61 -332 -22 -493 31 -567 185 -50 103
-93 327 -81 418 8 54 45 115 66 109 53 -16 92 -11 185 24 179 67 330 81 500
46z m-1103 -175 c33 -9 80 -25 106 -36 l47 -21 13 -70 c30 -161 106 -355 179
-455 38 -51 120 -106 203 -135 56 -19 91 -23 270 -27 298 -7 481 20 603 86
103 56 139 128 206 421 22 96 48 186 57 200 18 26 18 26 21 -64 4 -117 -14
-429 -34 -568 -22 -161 -58 -289 -105 -376 -191 -354 -487 -545 -714 -460 -44
16 -80 44 -166 124 -124 118 -188 160 -317 210 -92 35 -317 95 -358 95 -20 0
-19 3 12 36 66 72 77 130 32 171 -18 16 -43 18 -299 18 -275 0 -279 0 -301
-22 -34 -35 -29 -80 16 -141 26 -36 34 -53 24 -56 -7 -2 -53 -12 -103 -21
-121 -23 -294 -79 -380 -124 -83 -43 -156 -100 -246 -191 -76 -77 -136 -110
-217 -117 -228 -21 -465 162 -624 482 -121 243 -137 325 -145 750 l-6 309 24
-15 c44 -29 67 -78 94 -197 36 -158 71 -284 96 -343 51 -119 202 -186 470
-210 128 -11 382 -5 474 12 78 14 188 73 233 124 76 87 160 286 197 465 9 47
22 88 29 92 27 18 126 51 191 64 92 18 338 12 418 -10z m2301 -401 c0 -153
-39 -284 -114 -390 -21 -28 -22 -29 -16 -5 34 131 78 336 93 427 22 139 37
126 37 -32z m-5015 -245 c18 -69 34 -134 37 -145 l5 -20 -16 20 c-63 76 -105
209 -112 352 -8 160 4 173 32 33 13 -63 37 -171 54 -240z"/>
<path d="M2238 3237 c-92 -26 -180 -102 -225 -196 -25 -50 -28 -67 -28 -156 0
-90 3 -106 29 -159 37 -76 101 -140 174 -174 49 -23 70 -27 147 -27 83 0 95 2
153 34 75 41 125 94 161 170 23 49 26 69 26 156 0 87 -3 107 -27 157 -33 72
-104 142 -173 174 -66 31 -170 40 -237 21z"/>
<path d="M4587 3240 c-98 -25 -190 -102 -235 -198 -24 -50 -27 -70 -27 -157 0
-87 3 -107 26 -156 36 -76 86 -129 161 -170 58 -32 70 -34 153 -34 77 0 98 4
147 27 73 34 137 98 174 174 26 53 29 69 29 159 0 89 -3 106 -28 157 -34 70
-104 140 -172 174 -59 28 -165 39 -228 24z"/>
</g>
</svg>
