<svg xmlns="http://www.w3.org/2000/svg" viewBox="0 0 128 128"><path fill="#EDC391" d="M28.45 92.56c-6.86 0-12.44-5.99-12.44-13.35s5.58-13.35 12.44-13.35h71.1c6.86 0 12.44 5.99 12.44 13.35s-5.58 13.35-12.44 13.35h-71.1z"/><path fill="#d9ac77" d="M99.51178 67.37c6.04652 0 10.96997 5.31 10.96997 11.85s-4.92345 11.85-10.96997 11.85H28.217c-6.04652 0-10.96997-5.31-10.96997-11.85S22.17048 67.37 28.217 67.37h71.29478m0-3H28.217c-7.69101 0-13.97819 6.68-13.97819 14.85s6.28718 14.85 13.9782 14.85h71.3048c7.69101 0 13.97819-6.68 13.97819-14.85s-6.2972-14.85-13.98822-14.85z"/><linearGradient id="a" x1="64" x2="64" y1="123.1" y2="14.166" gradientUnits="userSpaceOnUse"><stop offset="0" stop-color="#FFD29C"/><stop offset=".0237" stop-color="#FFD39E"/><stop offset=".3158" stop-color="#FCD8AF"/><stop offset=".6295" stop-color="#FADCBA"/><stop offset="1" stop-color="#F9DDBD"/></linearGradient><path fill="url(#a)" d="M64 13.15c-22.64 0-43.61 24.21-43.61 59.06C20.39 106.87 42 124 64 124s43.61-17.13 43.61-51.79c0-34.84-20.97-59.06-43.61-59.06z"/><radialGradient id="b" cx="42.617" cy="64.088" r="7.7494" gradientTransform="translate(0 2)" gradientUnits="userSpaceOnUse"><stop offset=".0905" stop-color="#454140"/><stop offset="1" stop-color="#454140"/></radialGradient><path fill="url(#b)" d="M32.76 66.75s.17-.25.5-.66c.09-.1.16-.21.28-.34.14-.14.3-.28.48-.44.18-.15.36-.32.56-.49.2-.16.4-.29.62-.45.22-.15.45-.31.69-.46.25-.14.51-.28.78-.42.27-.15.56-.27.86-.39.3-.12.61-.24.92-.35.64-.18 1.31-.38 2-.46.69-.13 1.4-.14 2.11-.18.71.04 1.42.05 2.11.18.7.08 1.36.29 2 .46.32.11.62.23.92.35.3.11.59.24.86.39.27.14.53.28.78.42.25.15.47.31.69.46.22.16.43.29.61.45.18.16.35.31.51.46.16.14.31.27.44.41.13.13.24.27.34.38.4.47.6.75.6.75.66.92.45 2.19-.46 2.85-.56.4-1.25.48-1.86.28l-.38-.13s-.25-.09-.64-.26c-.1-.04-.2-.1-.32-.14-.13-.04-.25-.09-.39-.14-.27-.11-.57-.22-.91-.32-.17-.05-.33-.12-.51-.17-.18-.04-.37-.09-.56-.14-.09-.03-.19-.05-.29-.08l-.3-.06c-.2-.03-.4-.09-.61-.13-.43-.05-.85-.14-1.3-.16-.44-.06-.9-.04-1.35-.07-.45.02-.9.01-1.35.07-.45.02-.87.11-1.3.16-.21.04-.41.09-.61.13l-.3.06c-.1.03-.19.05-.29.08-.19.05-.38.1-.56.14-.18.05-.35.12-.51.17-.17.05-.33.1-.48.15-.13.05-.26.09-.38.13-.12.04-.24.08-.35.11-.13.05-.26.13-.38.19-.46.24-.75.35-.75.35-1.07.45-2.3-.06-2.75-1.14-.25-.68-.14-1.43.23-2z"/><ellipse cx="42.62" cy="75.27" fill="#312D2D" rx="6.41" ry="6.64"/><radialGradient id="c" cx="85.382" cy="64.088" r="7.7497" gradientTransform="translate(0 2)" gradientUnits="userSpaceOnUse"><stop offset=".0905" stop-color="#454140"/><stop offset="1" stop-color="#454140"/></radialGradient><path d="M75.70323 68.04617c-.478-.16416-1.14922-.197-1.70858-.08756-.02035.0036-1.86113.34656-4.20025.29184l-.28477-.0073c-1.94249-.04378-3.78328-.08755-5.8173-.08755h-.09153c-1.16957.0036-3.67142.05472-5.4817.09485-2.26793.05107-3.85447-.27724-3.85447-.27724-.56953-.12403-1.27126-.0985-1.7696.06566s-.69157.4341-.478.67852l3.04087 3.57867c.19323.22983.70174.39399 1.30177.41952.61021.02918 1.1899-.0839 1.51535-.28819.02035-.01094 1.90181-1.1783 6.31564-1.19654 4.36298.01824 6.25462 1.15277 6.32582 1.19654.28476.18605.79327.29549 1.33228.29549.06102 0 .13221 0 .19323-.0036.61021-.02918 1.11872-.20064 1.30178-.43046l2.83746-3.57868c.18306-.24076-.01016-.50342-.478-.66393z"/><path fill="url(#c)" d="M92.69 69.88s-.28-.12-.75-.35c-.11-.05-.25-.14-.38-.19-.12-.03-.23-.07-.35-.11-.12-.04-.25-.09-.38-.13-.15-.05-.31-.1-.48-.15-.17-.05-.33-.12-.51-.17-.18-.05-.37-.09-.56-.14-.09-.03-.19-.05-.29-.08l-.3-.06c-.2-.03-.4-.09-.61-.13-.43-.05-.85-.14-1.3-.16-.44-.06-.9-.04-1.35-.07-.45.02-.9.01-1.35.07-.45.02-.87.11-1.3.16-.21.04-.41.09-.61.13l-.3.06c-.1.03-.19.05-.29.08-.19.05-.38.1-.56.14-.18.05-.35.12-.51.17-.34.1-.64.21-.91.32-.14.05-.26.1-.39.14-.12.05-.22.1-.32.14-.39.18-.64.26-.64.26l-.37.13c-1.07.37-2.23-.19-2.6-1.26-.23-.65-.1-1.35.27-1.87 0 0 .2-.28.6-.75.1-.11.21-.25.34-.38.13-.13.28-.26.44-.41.16-.14.33-.3.51-.46.19-.16.4-.29.61-.45.22-.15.45-.31.69-.46.25-.14.51-.27.78-.42.27-.15.56-.27.86-.39.3-.12.6-.24.92-.35.64-.18 1.31-.38 2-.46.69-.13 1.4-.14 2.11-.18.71.04 1.42.04 2.11.18.7.08 1.36.29 2 .46.32.11.62.23.92.35.3.11.59.24.86.39.27.14.53.28.78.42.25.15.47.31.69.46.22.16.42.29.62.45.2.17.38.34.56.49.17.16.34.3.48.44.12.13.19.24.28.34.32.41.5.66.5.66.65.96.41 2.27-.55 2.92-.59.43-1.34.47-1.97.22z"/><ellipse cx="85.38" cy="75.27" fill="#312D2D" rx="6.41" ry="6.64"/><radialGradient id="d" cx="64.243" cy="4.4803" r="88.552" gradientUnits="userSpaceOnUse"><stop offset="0" stop-color="#454140"/><stop offset="1" stop-color="#312D2D"/></radialGradient><path fill="url(#d)" d="M64.02 4h-.04c-57.03.31-47.15 67.9-47.15 67.9S20.4 123.99 64 123.99s46.51-51.25 46.51-51.25S123.13 4.32 64.02 4zm23.51 95.56c-2.9.62-4.78-.62-5.88-1.86-1.64-1.85-3.61-3.4-5.91-4.3-2.96-1.16-7.16-2.33-12.05-2.34-4.9.01-9.09 1.18-12.05 2.34-2.3.9-4.27 2.45-5.91 4.3-1.1 1.24-2.98 2.48-5.88 1.86-5.35-1.14-8.77-6.49-10.92-12.15-2.84-7.47-.04-34.81.92-37.36 1.35-3.59 5.07-5.67 8.84-4.99 5.79 1.05 15.02 2.35 25.2 2.35h.22c10.18 0 19.41-1.3 25.2-2.35 3.77-.68 7.49 1.4 8.84 4.99 1.04 2.78 3.36 32.89-.87 40.6-2.36 4.3-5.56 8.02-9.75 8.91z"/><path fill="#525252" d="M64.05 108.06c4.94 0 10.42-3 13.11-5.3.71-.6.28-1.76-.65-1.76H51.5c-.93 0-1.36 1.16-.65 1.76 2.73 2.3 8.26 5.3 13.2 5.3z"/><path fill="#DBA689" d="M69.02 87.29c-.14-.06-.28-.09-.42-.11h-9.2c-.14.02-.28.05-.42.11-.83.34-1.29 1.2-.9 2.12.4.92 2.23 3.5 5.92 3.5s5.52-2.58 5.92-3.5c.39-.91-.07-1.78-.9-2.12z"/><path fill="none" d="M64.01 7H64c-14.17 0-25.16 4.55-32.68 13.29C15.27 38.96 19.75 71.14 19.8 71.47l.02.11.01.11c.01.12.95 12.73 7.01 25.09 7.88 16.06 20.38 24.21 37.16 24.21 16.77 0 29.16-8 36.83-23.77 5.89-12.13 6.68-24.52 6.69-24.65l.01-.19.03-.19c.06-.32 5.75-32.61-9.88-51.48C90.19 11.7 78.86 7 64.01 7zm-.11 37.41H64.11h-.21zm33.38 46.24c-2.36 4.3-5.56 8.02-9.75 8.91-.53.11-1.03.16-1.49.16-2.07 0-3.49-1.01-4.39-2.03-1.64-1.85-3.61-3.4-5.91-4.3-2.96-1.16-7.16-2.33-12.05-2.34-4.9.01-9.09 1.18-12.05 2.34-2.3.9-4.27 2.45-5.91 4.3-.9 1.01-2.32 2.03-4.39 2.03-.46 0-.96-.05-1.49-.16-5.35-1.14-8.77-6.49-10.92-12.15-2.84-7.47-.04-34.81.92-37.36 1.18-3.13 4.16-5.12 7.41-5.12.47 0 .95.04 1.43.13 5.79 1.05 15.02 2.35 25.2 2.35h.22c10.18 0 19.41-1.3 25.2-2.35.48-.09.96-.13 1.43-.13 3.25 0 6.23 1.99 7.41 5.12 1.05 2.77 3.37 32.89-.87 40.6z"/><path fill="#1F1A1A" d="M64.1 44.41H63.89h.22zM64 4s.01 0 0 0C7 4.31 16.84 71.9 16.84 71.9s3.57 52.09 47.16 52.09c43.6 0 46.49-51.25 46.49-51.25S123 4.32 64 4zm43.56 68.2l-.03.19-.01.19c-.01.12-.79 12.51-6.69 24.65C93.17 113.01 80.78 121 64 121s-29.28-8.15-37.16-24.21c-6.06-12.35-7-24.96-7.01-25.09l-.01-.11-.02-.11c-.05-.32-4.53-32.51 11.52-51.18C38.83 11.55 49.83 7 63.99 7h.02c14.86 0 26.18 4.7 33.67 13.72 15.63 18.87 9.93 51.16 9.88 51.48z"/><path d="M71.84941 68.81207s4.20106-4.36849 19.27017-3.1143c10.05835.83611 10.59991 1.67223 10.59991 1.67223l.0631 3.39145s-1.4985.38048-2.4712 1.45616c-.96746 1.0616-1.41964 7.00837-2.99175 9.80326-2.4344 4.3403-14.53807 3.24114-14.53807 3.24114s-4.93716.3476-7.34528-3.36796c-2.4081-3.70617-3.1442-9.0611-3.1442-9.0611zm3.52805 7.91495c.95693 3.96452 2.161 6.66547 10.36856 6.2474 5.28418-.26774 8.95944-.25835 9.80596-7.14459.52053-4.27923-.0578-5.8951-.45217-6.4118-.38909-.51201-1.80346-1.99636-9.97948-1.738-8.17602.25834-9.34853 1.8977-9.827 2.63987-.48898.73748-.87807 2.4473.0841 6.40712zM56.45064 68.90862s-4.20106-4.36848-19.27017-3.1143c-10.05835.83611-10.59991 1.67223-10.59991 1.67223l-.0631 3.39145s1.4985.38048 2.4712 1.45616c.96746 1.0616 1.41964 7.00837 2.99175 9.80327 2.4344 4.3403 14.53807 3.24113 14.53807 3.24113s4.93716.3476 7.34528-3.36796c2.4081-3.70617 3.1442-9.06109 3.1442-9.06109zm-3.52805 7.91495c-.95693 3.96452-2.161 6.66547-10.36856 6.2474-5.28418-.26774-8.95944-.25835-9.80596-7.14459-.52053-4.27923.0578-5.8951.45217-6.4118.38909-.51201 1.80346-1.99636 9.97948-1.738 8.17602.25835 9.34853 1.8977 9.827 2.63988.48898.73747.87807 2.44729-.0841 6.4071z"/></svg>